<svg width="20" height="20" viewBox="0 0 20 20" fill="none" xmlns="http://www.w3.org/2000/svg">
<path fill-rule="evenodd" clip-rule="evenodd" d="M10 20C15.5228 20 20 15.5228 20 10C20 4.47715 15.5228 0 10 0C4.47715 0 0 4.47715 0 10C0 15.5228 4.47715 20 10 20ZM10 18.4478C5.33443 18.4478 1.55224 14.6656 1.55224 10C1.55224 5.33443 5.33443 1.55224 10 1.55224C14.6656 1.55224 18.4478 5.33443 18.4478 10C18.4478 14.6656 14.6656 18.4478 10 18.4478ZM3.82923 11.6403C3.83212 11.0843 4.25882 10.7514 4.81521 10.8733C5.17367 11.0155 5.34822 11.2703 5.35307 11.6178C5.36882 12.7463 5.87508 13.6288 6.71524 14.3346C7.52918 15.0184 8.48494 15.3625 9.54088 15.4512C10.633 15.5429 11.6663 15.3476 12.6188 14.806C13.5985 14.2489 14.3057 13.4597 14.5823 12.3365C14.6401 12.1018 14.6692 11.8624 14.6737 11.6211C14.6825 11.1552 14.9967 10.823 15.4367 10.8206C15.8621 10.8182 16.1882 11.1681 16.1859 11.6348C16.1813 12.5471 15.9255 13.3889 15.4383 14.156C14.5314 15.584 13.2125 16.4438 11.5857 16.8065C9.55917 17.2584 7.66178 16.9224 5.97653 15.6691C4.83539 14.8204 4.10723 13.6956 3.88209 12.2727C3.84907 12.064 3.82813 11.8529 3.82923 11.6403ZM11.6889 8.55055C11.5152 8.37631 11.3416 8.20206 11.1678 8.02798C10.5777 7.42739 10.3745 6.73661 10.6089 5.95254C10.832 5.20639 11.3464 4.73685 12.1047 4.54691C12.4982 4.44834 12.8904 4.4721 13.2655 4.62478C13.4306 4.69195 13.571 4.68436 13.7368 4.62722C15.0771 4.16526 16.4858 5.1934 16.4504 6.60801C16.4371 7.14114 16.2384 7.60976 15.8655 7.99084C15.2727 8.59672 14.6705 9.1934 14.0683 9.78998C13.7133 10.1417 13.2819 10.1411 12.9281 9.78969C12.5136 9.37806 12.1013 8.96431 11.6889 8.55055ZM9.45733 6.32672C9.46105 6.36017 9.46477 6.39361 9.4694 6.42683C9.49808 7.0321 9.32142 7.54203 8.92389 7.95444C8.3192 8.58179 7.69917 9.19459 7.07751 9.80527C6.73586 10.1409 6.31526 10.1373 5.97872 9.804L5.91239 9.73831L5.91237 9.73829L5.9123 9.73822C5.31109 9.14285 4.70978 8.54738 4.12036 7.94044C3.53426 7.33691 3.38944 6.46895 3.72569 5.71446C4.06559 4.9518 4.81718 4.47247 5.65153 4.49306C5.90634 4.49935 6.15476 4.55342 6.38755 4.65843C6.4881 4.70378 6.57309 4.6979 6.6734 4.66037C7.86912 4.21306 9.11923 4.87362 9.42418 6.113C9.44133 6.18273 9.44933 6.25471 9.45733 6.3267L9.45733 6.32672ZM12.9596 6.15017C12.8105 6.02704 12.6481 5.96259 12.4394 6.01962C12.0096 6.21091 11.9243 6.6673 12.2483 6.98897C12.3932 7.13277 12.5393 7.27537 12.6853 7.41797L12.6854 7.418L12.6854 7.41805C12.9101 7.63745 13.1348 7.85684 13.3552 8.08054C13.4649 8.19189 13.5336 8.18982 13.6398 8.07829C13.8884 7.81715 14.1412 7.56 14.3939 7.30284L14.3941 7.30271L14.3942 7.3026L14.3942 7.3026C14.517 7.17767 14.6398 7.05274 14.7621 6.92735C14.9903 6.6935 15.0053 6.38797 14.8017 6.16908C14.5997 5.95183 14.2909 5.9438 14.0391 6.14927C13.6594 6.45911 13.3347 6.46014 12.9596 6.15017ZM5.61685 5.99459C5.76465 6.00568 5.87834 6.05626 5.98207 6.14317C6.36226 6.46171 6.68765 6.45945 7.07478 6.14238C7.27053 5.98206 7.49327 5.95448 7.69837 6.06517C7.89705 6.1724 7.99502 6.37564 7.96637 6.61539C7.9532 6.72567 7.90345 6.81631 7.82738 6.89419C7.71486 7.00939 7.6021 7.12437 7.48935 7.23936L7.48924 7.23947C7.20637 7.52792 6.92351 7.81638 6.64428 8.10832C6.54746 8.20955 6.48577 8.18525 6.39998 8.09932C6.14186 7.84078 5.88143 7.58453 5.62101 7.32829L5.62062 7.32791C5.50354 7.21271 5.38646 7.09751 5.26958 6.9821C5.11206 6.82655 5.02746 6.64397 5.1048 6.42381C5.18704 6.18972 5.32105 6.00366 5.61685 5.99459Z" fill="white"/>
<path fill-rule="evenodd" clip-rule="evenodd" d="M10 20C15.5228 20 20 15.5228 20 10C20 4.47715 15.5228 0 10 0C4.47715 0 0 4.47715 0 10C0 15.5228 4.47715 20 10 20ZM10 18.4478C5.33443 18.4478 1.55224 14.6656 1.55224 10C1.55224 5.33443 5.33443 1.55224 10 1.55224C14.6656 1.55224 18.4478 5.33443 18.4478 10C18.4478 14.6656 14.6656 18.4478 10 18.4478ZM3.82923 11.6403C3.83212 11.0843 4.25882 10.7514 4.81521 10.8733C5.17367 11.0155 5.34822 11.2703 5.35307 11.6178C5.36882 12.7463 5.87508 13.6288 6.71524 14.3346C7.52918 15.0184 8.48494 15.3625 9.54088 15.4512C10.633 15.5429 11.6663 15.3476 12.6188 14.806C13.5985 14.2489 14.3057 13.4597 14.5823 12.3365C14.6401 12.1018 14.6692 11.8624 14.6737 11.6211C14.6825 11.1552 14.9967 10.823 15.4367 10.8206C15.8621 10.8182 16.1882 11.1681 16.1859 11.6348C16.1813 12.5471 15.9255 13.3889 15.4383 14.156C14.5314 15.584 13.2125 16.4438 11.5857 16.8065C9.55917 17.2584 7.66178 16.9224 5.97653 15.6691C4.83539 14.8204 4.10723 13.6956 3.88209 12.2727C3.84907 12.064 3.82813 11.8529 3.82923 11.6403ZM11.6889 8.55055C11.5152 8.37631 11.3416 8.20206 11.1678 8.02798C10.5777 7.42739 10.3745 6.73661 10.6089 5.95254C10.832 5.20639 11.3464 4.73685 12.1047 4.54691C12.4982 4.44834 12.8904 4.4721 13.2655 4.62478C13.4306 4.69195 13.571 4.68436 13.7368 4.62722C15.0771 4.16526 16.4858 5.1934 16.4504 6.60801C16.4371 7.14114 16.2384 7.60976 15.8655 7.99084C15.2727 8.59672 14.6705 9.1934 14.0683 9.78998C13.7133 10.1417 13.2819 10.1411 12.9281 9.78969C12.5136 9.37806 12.1013 8.96431 11.6889 8.55055ZM9.45733 6.32672C9.46105 6.36017 9.46477 6.39361 9.4694 6.42683C9.49808 7.0321 9.32142 7.54203 8.92389 7.95444C8.3192 8.58179 7.69917 9.19459 7.07751 9.80527C6.73586 10.1409 6.31526 10.1373 5.97872 9.804L5.91239 9.73831L5.91237 9.73829L5.9123 9.73822C5.31109 9.14285 4.70978 8.54738 4.12036 7.94044C3.53426 7.33691 3.38944 6.46895 3.72569 5.71446C4.06559 4.9518 4.81718 4.47247 5.65153 4.49306C5.90634 4.49935 6.15476 4.55342 6.38755 4.65843C6.4881 4.70378 6.57309 4.6979 6.6734 4.66037C7.86912 4.21306 9.11923 4.87362 9.42418 6.113C9.44133 6.18273 9.44933 6.25471 9.45733 6.3267L9.45733 6.32672ZM12.9596 6.15017C12.8105 6.02704 12.6481 5.96259 12.4394 6.01962C12.0096 6.21091 11.9243 6.6673 12.2483 6.98897C12.3932 7.13277 12.5393 7.27537 12.6853 7.41797L12.6854 7.418L12.6854 7.41805C12.9101 7.63745 13.1348 7.85684 13.3552 8.08054C13.4649 8.19189 13.5336 8.18982 13.6398 8.07829C13.8884 7.81715 14.1412 7.56 14.3939 7.30284L14.3941 7.30271L14.3942 7.3026L14.3942 7.3026C14.517 7.17767 14.6398 7.05274 14.7621 6.92735C14.9903 6.6935 15.0053 6.38797 14.8017 6.16908C14.5997 5.95183 14.2909 5.9438 14.0391 6.14927C13.6594 6.45911 13.3347 6.46014 12.9596 6.15017ZM5.61685 5.99459C5.76465 6.00568 5.87834 6.05626 5.98207 6.14317C6.36226 6.46171 6.68765 6.45945 7.07478 6.14238C7.27053 5.98206 7.49327 5.95448 7.69837 6.06517C7.89705 6.1724 7.99502 6.37564 7.96637 6.61539C7.9532 6.72567 7.90345 6.81631 7.82738 6.89419C7.71486 7.00939 7.6021 7.12437 7.48935 7.23936L7.48924 7.23947C7.20637 7.52792 6.92351 7.81638 6.64428 8.10832C6.54746 8.20955 6.48577 8.18525 6.39998 8.09932C6.14186 7.84078 5.88143 7.58453 5.62101 7.32829L5.62062 7.32791C5.50354 7.21271 5.38646 7.09751 5.26958 6.9821C5.11206 6.82655 5.02746 6.64397 5.1048 6.42381C5.18704 6.18972 5.32105 6.00366 5.61685 5.99459Z" fill="url(#paint0_linear_6_14)"/>
<defs>
<linearGradient id="paint0_linear_6_14" x1="16" y1="19.5" x2="8.32305" y2="-2.25998" gradientUnits="userSpaceOnUse">
<stop offset="0.118756" stop-color="#76EE99"/>
<stop offset="0.291667" stop-color="#4891FF"/>
<stop offset="0.452857" stop-color="#CB37FF"/>
<stop offset="0.642525" stop-color="#EF76B6"/>
<stop offset="0.865093" stop-color="#FFD159"/>
</linearGradient>
</defs>
</svg>
