<svg width="20" height="20" viewBox="0 0 20 20" fill="none" xmlns="http://www.w3.org/2000/svg">
<path d="M8.20898 9.18555C8.37891 9.0625 8.46094 8.85937 8.46094 8.58008C8.4668 8.44727 8.43945 8.31641 8.38086 8.19727C8.32813 8.10156 8.25 8.02148 8.1543 7.96484C8.05506 7.90467 7.94485 7.86483 7.83008 7.84766C7.70508 7.82422 7.57813 7.8125 7.45313 7.81445H6.08008V9.37109H7.56641C7.82227 9.37305 8.03906 9.31055 8.20898 9.18555ZM8.43945 10.5918C8.24805 10.4453 7.99219 10.373 7.67383 10.373H6.07617V12.209H7.64258C7.78906 12.209 7.92383 12.1953 8.05469 12.168C8.1785 12.1438 8.29652 12.096 8.40234 12.0273C8.50195 11.9629 8.58203 11.875 8.64258 11.7617C8.70117 11.6484 8.73047 11.5039 8.73047 11.3301C8.73047 10.9844 8.63281 10.7402 8.43945 10.5918ZM10 1.25C5.16797 1.25 1.25 5.16797 1.25 10C1.25 14.832 5.16797 18.75 10 18.75C14.832 18.75 18.75 14.832 18.75 10C18.75 5.16797 14.832 1.25 10 1.25ZM11.6895 6.85352H14.3926V7.51172H11.6895V6.85352ZM10 12.2812C9.87357 12.5212 9.69303 12.7285 9.47266 12.8867C9.24219 13.0469 8.98633 13.1641 8.71484 13.2324C8.43081 13.3085 8.1378 13.346 7.84375 13.3438H4.60938V6.68164H7.75391C8.07227 6.68164 8.36133 6.71094 8.625 6.76562C8.88672 6.82031 9.10937 6.91406 9.29688 7.04102C9.48242 7.16797 9.62891 7.33789 9.73242 7.54883C9.83398 7.75781 9.88672 8.01953 9.88672 8.33008C9.88672 8.66602 9.81055 8.94336 9.6582 9.16797C9.50391 9.39258 9.28125 9.57422 8.97852 9.7168C9.39063 9.83398 9.69336 10.043 9.89258 10.3359C10.0957 10.6328 10.1953 10.9883 10.1953 11.4062C10.1953 11.7461 10.1309 12.0371 10 12.2812ZM15.4453 11.25H11.9609C11.9609 11.6289 12.0918 11.9922 12.2891 12.1875C12.4883 12.3809 12.7734 12.4785 13.1465 12.4785C13.416 12.4785 13.6445 12.4102 13.8398 12.2754C14.0332 12.1406 14.1504 11.998 14.1934 11.8496H15.3613C15.1738 12.4297 14.8887 12.8438 14.502 13.0938C14.1191 13.3438 13.6504 13.4687 13.1055 13.4687C12.7246 13.4687 12.3828 13.4062 12.0762 13.2871C11.7812 13.1719 11.5156 12.9961 11.2969 12.7695C11.0812 12.5369 10.9145 12.2632 10.8066 11.9648C10.6875 11.6348 10.6289 11.2871 10.6328 10.9375C10.6328 10.5762 10.6934 10.2402 10.8105 9.92773C11.0352 9.32031 11.502 8.83398 12.0977 8.58203C12.416 8.44922 12.7578 8.38281 13.1035 8.38672C13.5137 8.38672 13.8691 8.46484 14.1777 8.625C14.4748 8.77793 14.7328 8.99712 14.9316 9.26562C15.1289 9.5332 15.2676 9.83789 15.3555 10.1816C15.4395 10.5195 15.4687 10.875 15.4453 11.25ZM13.0625 9.38281C12.8516 9.38281 12.6738 9.41992 12.5371 9.49219C12.4004 9.56445 12.2871 9.6543 12.2012 9.75781C12.1193 9.85776 12.0588 9.97342 12.0234 10.0977C11.9922 10.2012 11.9707 10.3066 11.9629 10.4141H14.1211C14.0898 10.0762 13.9727 9.82617 13.8164 9.65039C13.6523 9.47656 13.3887 9.38281 13.0625 9.38281Z" fill="black"/>
</svg>
