<svg width="20" height="20" viewBox="0 0 20 20" fill="none" xmlns="http://www.w3.org/2000/svg">
<path fill-rule="evenodd" clip-rule="evenodd" d="M1.07129 9.99986C1.07129 13.9449 3.6295 17.2913 7.17736 18.472C7.62379 18.5541 7.787 18.2784 7.787 18.0416C7.787 17.8299 7.77915 17.2681 7.77486 16.5234C5.29129 17.0627 4.76736 15.3263 4.76736 15.3263C4.36093 14.2945 3.77557 14.0199 3.77557 14.0199C2.96486 13.4663 3.837 13.4774 3.837 13.4774C4.73343 13.5406 5.20486 14.3977 5.20486 14.3977C6.00129 15.762 7.2945 15.3677 7.80343 15.1391C7.8845 14.5627 8.11522 14.1691 8.36986 13.9463C6.38772 13.7209 4.30307 12.9545 4.30307 9.53308C4.30307 8.55843 4.65093 7.76093 5.22236 7.13736C5.13022 6.91165 4.82379 6.00343 5.30986 4.7745C5.30986 4.7745 6.05915 4.53415 7.76486 5.68986C8.477 5.49129 9.24093 5.39272 10.0002 5.38879C10.7588 5.39236 11.5224 5.49129 12.2352 5.68986C13.9399 4.53415 14.6881 4.7745 14.6881 4.7745C15.1756 6.00308 14.8691 6.91165 14.7774 7.13736C15.3499 7.76093 15.6952 8.55879 15.6952 9.53308C15.6952 12.9634 13.6074 13.7181 11.6188 13.9388C11.9388 14.2145 12.2245 14.7595 12.2245 15.5924C12.2245 16.7859 12.2134 17.7488 12.2134 18.0416C12.2134 18.2806 12.3745 18.5584 12.8274 18.4713C16.3727 17.2881 18.9284 13.9438 18.9284 9.99986C18.9284 5.06915 14.9306 1.07129 9.99915 1.07129C5.06915 1.07129 1.07129 5.06879 1.07129 9.99986Z" fill="black"/>
</svg>
