<svg width="20" height="20" viewBox="0 0 20 20" fill="none" xmlns="http://www.w3.org/2000/svg">
<path d="M6.83155 12.2877C7.02686 12.4268 7.26072 12.5014 7.5005 12.5012C7.74028 12.501 7.974 12.4259 8.16905 12.2864C8.36501 12.1418 8.51341 11.942 8.5953 11.7127L9.02905 10.3789C9.13292 10.0646 9.30887 9.77893 9.54284 9.54474C9.77681 9.31055 10.0623 9.13433 10.3766 9.03017L11.7341 8.58892C11.9617 8.50727 12.1579 8.35613 12.295 8.15688C12.4321 7.95763 12.5031 7.72033 12.498 7.47853C12.4929 7.23673 12.4119 7.00265 12.2665 6.80937C12.1212 6.61609 11.9187 6.47338 11.6878 6.40142L10.3516 5.96892C10.0371 5.86505 9.75126 5.68911 9.51687 5.45515C9.28247 5.22119 9.10601 4.93569 9.00155 4.62142L8.5603 3.26642C8.4807 3.04236 8.33338 2.84859 8.13875 2.71197C7.94413 2.57536 7.71183 2.50265 7.47405 2.50392C7.23299 2.5029 6.99771 2.57765 6.80144 2.71761C6.60518 2.85758 6.45786 3.05568 6.3803 3.28392L5.9353 4.64642C5.8308 4.95138 5.65868 5.22874 5.43183 5.45777C5.20497 5.68679 4.92925 5.86153 4.6253 5.96892L3.2703 6.40767C3.04393 6.48767 2.84816 6.63629 2.71027 6.83282C2.57237 7.02936 2.49922 7.26401 2.50101 7.50409C2.5028 7.74417 2.57944 7.97771 2.72024 8.17216C2.86105 8.36662 3.05902 8.51231 3.28655 8.58892L4.6203 9.02267C4.9351 9.12805 5.22107 9.30522 5.45559 9.54018C5.69011 9.77513 5.86675 10.0614 5.97155 10.3764L6.41155 11.7264C6.4903 11.9514 6.6378 12.1477 6.8328 12.2864M13.1703 17.3127C13.3399 17.4327 13.5425 17.4973 13.7503 17.4977C13.9601 17.495 14.1639 17.4275 14.3337 17.3044C14.5036 17.1813 14.6312 17.0087 14.6991 16.8102L15.0091 15.8577C15.0742 15.6593 15.1851 15.479 15.3328 15.3314C15.4804 15.1837 15.6607 15.0728 15.8591 15.0077L16.8241 14.6927C17.0236 14.6242 17.1965 14.4944 17.3178 14.3218C17.4392 14.1492 17.5028 13.9426 17.4996 13.7316C17.4964 13.5206 17.4266 13.3161 17.3001 13.1472C17.1736 12.9783 16.9969 12.8538 16.7953 12.7914L15.8403 12.4802C15.6427 12.4144 15.463 12.3036 15.3155 12.1565C15.168 12.0094 15.0567 11.8301 14.9903 11.6327L14.6753 10.6652C14.6075 10.4665 14.4789 10.2942 14.3078 10.1726C14.1366 10.0511 13.9315 9.9865 13.7216 9.98802C13.5117 9.98954 13.3075 10.0571 13.1382 10.1811C12.9688 10.3051 12.8427 10.4793 12.7778 10.6789L12.4691 11.6314C12.4051 11.8271 12.297 12.0054 12.1531 12.1526C12.0091 12.2998 11.8333 12.4119 11.6391 12.4802L10.6691 12.7964C10.5222 12.8475 10.3893 12.932 10.2809 13.0434C10.1725 13.1548 10.0915 13.29 10.0444 13.4381C9.99733 13.5863 9.98544 13.7433 10.0097 13.8969C10.0339 14.0504 10.0936 14.1962 10.1841 14.3227C10.3078 14.4977 10.4828 14.6289 10.6841 14.6977L11.6378 15.0064C11.8362 15.0728 12.0163 15.1845 12.1638 15.3327C12.3114 15.4809 12.4223 15.6615 12.4878 15.8602L12.8041 16.8277C12.8725 17.0233 13.0001 17.1927 13.1691 17.3127" fill="#FFC90B"/>
</svg>
