<svg width="20" height="21" viewBox="0 0 20 21" fill="none" xmlns="http://www.w3.org/2000/svg">
<g clip-path="url(#clip0_96_2)">
<path d="M1.25719 0.901401L12.8195 0.0474949C14.2398 -0.0743801 14.6047 0.00780739 15.4977 0.656948L19.1885 3.2571C19.7973 3.70421 20 3.82617 20 4.31304V18.573C20 19.4666 19.6754 19.9952 18.5394 20.0761L5.1125 20.8889C4.25992 20.9293 3.85391 20.8074 3.40742 20.2384L0.689531 16.7042C0.202031 16.0537 0 15.5667 0 14.9977V2.32234C0 1.59171 0.324609 0.98226 1.25719 0.901401Z" fill="white"/>
<path d="M12.8195 0.0474949L1.25719 0.901401C0.324609 0.98226 0 1.59171 0 2.32234V14.9977C0 15.5668 0.201953 16.0537 0.689531 16.7042L3.40742 20.2384C3.85391 20.8074 4.25992 20.9293 5.1125 20.8889L18.5394 20.0761C19.6747 19.9952 20 19.4666 20 18.573V4.31304C20 3.85124 19.8175 3.7182 19.2805 3.32398L19.1879 3.2571L15.4977 0.656948C14.6047 0.00780739 14.2398 -0.0743801 12.8195 0.0474949ZM5.41617 4.07968C4.31984 4.15351 4.07117 4.17023 3.44852 3.66382L1.86531 2.40453C1.70437 2.24156 1.78516 2.03812 2.19055 1.99773L13.3057 1.18562C14.2391 1.10414 14.7252 1.42937 15.0902 1.71359L16.9966 3.09484C17.078 3.13585 17.2808 3.37898 17.037 3.37898L5.55828 4.06992L5.41617 4.07968ZM4.13805 18.4511V6.34546C4.13805 5.81679 4.30031 5.57304 4.78648 5.53195L17.9703 4.76015C18.4175 4.71976 18.6195 5.0039 18.6195 5.53195V17.5567C18.6195 18.0854 18.538 18.5325 17.808 18.573L5.19188 19.3043C4.46195 19.3447 4.13805 19.1016 4.13805 18.4511ZM16.592 6.99453C16.6727 7.36023 16.592 7.72593 16.2262 7.76773L15.6182 7.8882V16.826C15.0902 17.1101 14.6041 17.2725 14.1979 17.2725C13.5488 17.2725 13.3865 17.0691 12.9003 16.4603L8.92391 10.2041V16.2569L10.1817 16.5418C10.1817 16.5418 10.1817 17.2732 9.16695 17.2732L6.36898 17.4355C6.2875 17.2725 6.36898 16.8664 6.65258 16.7856L7.38312 16.5829V8.57992L6.36906 8.49773C6.2875 8.1321 6.49016 7.60406 7.05859 7.56296L10.0606 7.36101L14.198 13.698V8.09171L13.1434 7.97046C13.062 7.52257 13.3865 7.19734 13.7919 7.15765L16.592 6.99453Z" fill="black"/>
</g>
<defs>
<clipPath id="clip0_96_2">
<rect width="20" height="20.9375" fill="white"/>
</clipPath>
</defs>
</svg>
