<svg width="20" height="20" viewBox="0 0 20 20" fill="none" xmlns="http://www.w3.org/2000/svg">
<path d="M19.5583 5.22817C19.4436 4.7975 19.2198 4.40488 18.9093 4.08939C18.5987 3.7739 18.2122 3.54656 17.7883 3.43C16.2363 3 9.98986 3 9.98986 3C9.98986 3 3.74314 3.01302 2.19111 3.44302C1.76716 3.55958 1.38067 3.78693 1.07013 4.10244C0.759581 4.41794 0.535813 4.81058 0.421109 5.24127C-0.0483444 8.0427 -0.230454 12.3114 0.433999 15.0008C0.548716 15.4315 0.772489 15.8241 1.08303 16.1396C1.39358 16.4551 1.78006 16.6824 2.204 16.799C3.75603 17.229 10.0026 17.229 10.0026 17.229C10.0026 17.229 16.2491 17.229 17.801 16.799C18.225 16.6824 18.6115 16.4551 18.922 16.1396C19.2326 15.8241 19.4564 15.4315 19.5711 15.0008C20.0663 12.1954 20.2188 7.92929 19.5583 5.22817Z" fill="#FF0000"/>
<path d="M8.00098 13.1635L13.1829 10.1145L8.00098 7.06543V13.1635Z" fill="white"/>
</svg>
