<svg width="20" height="20" viewBox="0 0 20 20" fill="none" xmlns="http://www.w3.org/2000/svg">
<g clip-path="url(#clip0_11_4)">
<path d="M17 10C18.5 11.5 14.3137 17 11 17C7.68629 17 5 13.866 5 10C5 6.13401 7.68629 3 11 3C14.3137 3 18.5 9 17 10Z" fill="#0AE8F0"/>
<path d="M16.3796 11.885C16.6137 11.885 16.8437 11.9042 17.0696 11.9383C17.0696 11.9425 17.0654 11.9467 17.0654 11.95C16.9763 12.1761 16.8702 12.395 16.7479 12.605L15.7321 14.36C15.2761 15.1526 14.619 15.8108 13.8274 16.2683C13.0357 16.7258 12.1373 16.9664 11.2229 16.9658H9.19624C8.28193 16.9655 7.38382 16.7245 6.59216 16.2671C5.8005 15.8097 5.14317 15.1519 4.68624 14.36L3.67124 12.605C3.21388 11.813 2.9731 10.9146 2.9731 10C2.9731 9.08544 3.21388 8.18699 3.67124 7.395L4.68624 5.64C5.14246 4.84743 5.79962 4.1892 6.59145 3.73169C7.38327 3.27418 8.28174 3.03359 9.19624 3.03417H11.2229C12.1371 3.03449 13.0351 3.27548 13.8266 3.73291C14.6182 4.19033 15.2753 4.84807 15.7321 5.64L16.7479 7.395C16.8704 7.605 16.9737 7.8275 17.0654 8.05C17.0654 8.05333 17.0696 8.0575 17.0696 8.06167C16.8413 8.09698 16.6106 8.11481 16.3796 8.115C14.8662 8.115 14.2954 7.60917 13.6371 7.02667C13.0004 6.46333 12.2112 5.7625 10.7704 5.7625H9.9129C8.8704 5.7625 7.92374 6.14167 7.24624 6.8275C6.5829 7.49833 6.21874 8.41417 6.21874 9.41V10.5858C6.21874 11.5825 6.5829 12.4983 7.24624 13.1683C7.92374 13.8542 8.8704 14.2333 9.9129 14.2333H10.7746C12.2154 14.2333 13.0046 13.5325 13.6404 12.9692C14.2996 12.3833 14.8662 11.8808 16.3796 11.885ZM16.3837 9.1875C16.7162 9.1875 17.0454 9.1575 17.3662 9.09583C17.3646 9.0925 17.3646 9.0875 17.3646 9.08417C17.3019 8.73693 17.2045 8.39688 17.0737 8.06917C17.6714 7.97508 18.2385 7.74124 18.7287 7.38667C18.7287 7.38333 18.7246 7.37583 18.7246 7.37167C18.4488 6.46901 18.0298 5.6165 17.4837 4.84667C16.9427 4.08546 16.2875 3.41227 15.5412 2.85083C13.9974 1.68932 12.1165 1.06373 10.1846 1.06917C8.9779 1.06917 7.8054 1.3025 6.7054 1.77C5.64457 2.2225 4.68624 2.86583 3.86624 3.68583C3.04624 4.50583 2.39874 5.46 1.95124 6.525C1.48661 7.626 1.248 8.80915 1.24957 10.0042C1.24957 11.2108 1.48374 12.3833 1.95124 13.4825C2.4029 14.5442 3.04624 15.5017 3.86624 16.3217C4.68624 17.1417 5.6404 17.7892 6.7054 18.2375C7.80874 18.7008 8.9779 18.9383 10.1846 18.9383C12.1346 18.9383 13.9854 18.3217 15.5412 17.1575C16.2883 16.5966 16.9436 15.923 17.4837 15.1608C18.0276 14.3897 18.4463 13.5375 18.7246 12.6358C18.7246 12.6325 18.7287 12.6242 18.7287 12.6208C18.2385 12.2663 17.6714 12.0324 17.0737 11.9383C17.2079 11.6092 17.3037 11.2683 17.3646 10.9233C17.3687 10.9158 17.3687 10.9117 17.3687 10.9042C18.0931 11.0366 18.778 11.3315 19.3721 11.7667C19.9429 12.1875 19.8321 12.6625 19.7437 12.9467C18.4871 17.0308 14.6829 20 10.1846 20C4.66374 20 0.18457 15.5208 0.18457 10C0.18457 4.47917 4.65957 0 10.1846 0C14.6829 0 18.4871 2.96917 19.7437 7.05333C19.8321 7.3375 19.9429 7.81583 19.3721 8.2375C18.7785 8.67336 18.0934 8.96806 17.3687 9.09917C17.4754 9.69583 17.4754 10.3075 17.3687 10.9042C17.044 10.8426 16.7142 10.8119 16.3837 10.8125C12.8971 10.8125 13.0771 13.165 10.7704 13.165H9.9129C8.3304 13.165 7.2879 12.0342 7.2879 10.5858V9.41C7.2879 7.96167 8.3304 6.83167 9.9129 6.83167H10.7746C13.0812 6.83167 12.9012 9.18417 16.3837 9.1875Z" fill="#006BFF"/>
</g>
<defs>
<clipPath id="clip0_11_4">
<rect width="20" height="20" fill="white"/>
</clipPath>
</defs>
</svg>
